<mxfile host="app.diagrams.net" modified="2021-03-02T10:17:14.506Z" agent="5.0 (Windows NT 10.0; Win64; x64) AppleWebKit/537.36 (KHTML, like Gecko) Chrome/88.0.4324.182 Safari/537.36 Edg/88.0.705.81" etag="ySmS3YHBJNU-IHunZ2OG" version="14.4.3" type="github">
  <diagram id="C5RBs43oDa-KdzZeNtuy" name="Page-1">
    <mxGraphModel dx="1422" dy="752" grid="1" gridSize="10" guides="1" tooltips="1" connect="1" arrows="1" fold="1" page="1" pageScale="1" pageWidth="827" pageHeight="1169" math="0" shadow="0">
      <root>
        <mxCell id="WIyWlLk6GJQsqaUBKTNV-0" />
        <mxCell id="WIyWlLk6GJQsqaUBKTNV-1" parent="WIyWlLk6GJQsqaUBKTNV-0" />
        <mxCell id="hvM_4S4pPfWM0NaN50vv-0" value="" style="edgeStyle=orthogonalEdgeStyle;rounded=0;orthogonalLoop=1;jettySize=auto;html=1;exitX=0.5;exitY=1;exitDx=0;exitDy=0;" parent="WIyWlLk6GJQsqaUBKTNV-1" source="hvM_4S4pPfWM0NaN50vv-1" target="hvM_4S4pPfWM0NaN50vv-2" edge="1">
          <mxGeometry relative="1" as="geometry" />
        </mxCell>
        <mxCell id="hvM_4S4pPfWM0NaN50vv-1" value="Subject" style="rounded=1;whiteSpace=wrap;html=1;fontSize=12;glass=0;strokeWidth=1;shadow=0;fillColor=#fff2cc;strokeColor=#d6b656;" parent="WIyWlLk6GJQsqaUBKTNV-1" vertex="1">
          <mxGeometry x="280" y="120" width="260" height="70" as="geometry" />
        </mxCell>
        <mxCell id="hvM_4S4pPfWM0NaN50vv-2" value="Exercise x3:&lt;br&gt;Squat, Rest, Standing on 1 foot" style="shape=parallelogram;perimeter=parallelogramPerimeter;whiteSpace=wrap;html=1;fixedSize=1;fillColor=#e1d5e7;strokeColor=#9673a6;" parent="WIyWlLk6GJQsqaUBKTNV-1" vertex="1">
          <mxGeometry x="280" y="280" width="260" height="70" as="geometry" />
        </mxCell>
        <mxCell id="hvM_4S4pPfWM0NaN50vv-3" value="&lt;font style=&quot;font-size: 20px&quot;&gt;&lt;b&gt;Data collection&lt;/b&gt;&lt;/font&gt;" style="text;html=1;align=center;verticalAlign=middle;resizable=0;points=[];autosize=1;" parent="WIyWlLk6GJQsqaUBKTNV-1" vertex="1">
          <mxGeometry x="334" y="40" width="160" height="20" as="geometry" />
        </mxCell>
        <mxCell id="hvM_4S4pPfWM0NaN50vv-4" value="" style="endArrow=classic;html=1;exitX=0.5;exitY=1;exitDx=0;exitDy=0;entryX=0.5;entryY=0;entryDx=0;entryDy=0;" parent="WIyWlLk6GJQsqaUBKTNV-1" source="hvM_4S4pPfWM0NaN50vv-2" target="hvM_4S4pPfWM0NaN50vv-6" edge="1">
          <mxGeometry width="50" height="50" relative="1" as="geometry">
            <mxPoint x="280" y="560" as="sourcePoint" />
            <mxPoint x="320" y="510" as="targetPoint" />
          </mxGeometry>
        </mxCell>
        <mxCell id="hvM_4S4pPfWM0NaN50vv-5" value="" style="endArrow=classic;html=1;entryX=0.5;entryY=0;entryDx=0;entryDy=0;exitX=0.5;exitY=1;exitDx=0;exitDy=0;" parent="WIyWlLk6GJQsqaUBKTNV-1" source="hvM_4S4pPfWM0NaN50vv-2" target="hvM_4S4pPfWM0NaN50vv-7" edge="1">
          <mxGeometry width="50" height="50" relative="1" as="geometry">
            <mxPoint x="410" y="390" as="sourcePoint" />
            <mxPoint x="480" y="510" as="targetPoint" />
          </mxGeometry>
        </mxCell>
        <mxCell id="hvM_4S4pPfWM0NaN50vv-6" value="Realsense" style="ellipse;whiteSpace=wrap;html=1;aspect=fixed;fillColor=#d5e8d4;strokeColor=#82b366;" parent="WIyWlLk6GJQsqaUBKTNV-1" vertex="1">
          <mxGeometry x="210" y="430" width="100" height="100" as="geometry" />
        </mxCell>
        <mxCell id="hvM_4S4pPfWM0NaN50vv-7" value="Vicon&lt;br&gt;" style="ellipse;whiteSpace=wrap;html=1;aspect=fixed;fillColor=#d5e8d4;strokeColor=#82b366;" parent="WIyWlLk6GJQsqaUBKTNV-1" vertex="1">
          <mxGeometry x="500" y="430" width="100" height="100" as="geometry" />
        </mxCell>
        <mxCell id="hvM_4S4pPfWM0NaN50vv-8" value="Shooting Angle x3:&lt;br&gt;Front, Back, Side" style="rhombus;whiteSpace=wrap;html=1;fillColor=#dae8fc;strokeColor=#6c8ebf;" parent="WIyWlLk6GJQsqaUBKTNV-1" vertex="1">
          <mxGeometry x="190" y="580" width="140" height="120" as="geometry" />
        </mxCell>
        <mxCell id="hvM_4S4pPfWM0NaN50vv-9" value="" style="endArrow=none;html=1;entryX=0.5;entryY=1;entryDx=0;entryDy=0;exitX=0.5;exitY=0;exitDx=0;exitDy=0;" parent="WIyWlLk6GJQsqaUBKTNV-1" source="hvM_4S4pPfWM0NaN50vv-8" target="hvM_4S4pPfWM0NaN50vv-6" edge="1">
          <mxGeometry width="50" height="50" relative="1" as="geometry">
            <mxPoint x="260" y="590" as="sourcePoint" />
            <mxPoint x="310" y="570" as="targetPoint" />
          </mxGeometry>
        </mxCell>
        <mxCell id="hvM_4S4pPfWM0NaN50vv-10" value="CSV&lt;br&gt;Files" style="shape=cylinder3;whiteSpace=wrap;html=1;boundedLbl=1;backgroundOutline=1;size=15;fillColor=#f5f5f5;strokeColor=#666666;fontColor=#333333;" parent="WIyWlLk6GJQsqaUBKTNV-1" vertex="1">
          <mxGeometry x="520" y="600" width="60" height="80" as="geometry" />
        </mxCell>
        <mxCell id="hvM_4S4pPfWM0NaN50vv-11" value="" style="endArrow=classic;html=1;exitX=0.5;exitY=1;exitDx=0;exitDy=0;entryX=0.5;entryY=0;entryDx=0;entryDy=0;entryPerimeter=0;" parent="WIyWlLk6GJQsqaUBKTNV-1" source="hvM_4S4pPfWM0NaN50vv-7" target="hvM_4S4pPfWM0NaN50vv-10" edge="1">
          <mxGeometry width="50" height="50" relative="1" as="geometry">
            <mxPoint x="600" y="610" as="sourcePoint" />
            <mxPoint x="650" y="560" as="targetPoint" />
          </mxGeometry>
        </mxCell>
        <mxCell id="hvM_4S4pPfWM0NaN50vv-12" value="" style="endArrow=classic;html=1;exitX=0.5;exitY=1;exitDx=0;exitDy=0;" parent="WIyWlLk6GJQsqaUBKTNV-1" source="hvM_4S4pPfWM0NaN50vv-8" edge="1">
          <mxGeometry width="50" height="50" relative="1" as="geometry">
            <mxPoint x="300" y="790" as="sourcePoint" />
            <mxPoint x="261.33333333333326" y="760" as="targetPoint" />
          </mxGeometry>
        </mxCell>
        <mxCell id="hvM_4S4pPfWM0NaN50vv-13" value="Bag&lt;br&gt;Files" style="shape=cylinder3;whiteSpace=wrap;html=1;boundedLbl=1;backgroundOutline=1;size=15;fillColor=#f5f5f5;strokeColor=#666666;fontColor=#333333;" parent="WIyWlLk6GJQsqaUBKTNV-1" vertex="1">
          <mxGeometry x="230" y="760" width="60" height="80" as="geometry" />
        </mxCell>
      </root>
    </mxGraphModel>
  </diagram>
</mxfile>
